<svg width="80" height="80" viewBox="0 0 80 80" fill="none" xmlns="http://www.w3.org/2000/svg">
<circle cx="40" cy="40" r="40" fill="#FAE7EC"/>
<path d="M34.941 50C34.5366 52.8269 32.1054 55 29.1667 55C26.228 55 23.7968 52.8269 23.3924 50H21.6667V30C21.6667 29.0796 22.4129 28.3334 23.3334 28.3334H46.6667C47.5872 28.3334 48.3334 29.0796 48.3334 30V33.3334H53.3334L58.3334 40.0929V50H54.941C54.5365 52.8269 52.1054 55 49.1667 55C46.228 55 43.7969 52.8269 43.3924 50H34.941ZM45 31.6667H25V45.0842C26.0588 44.0037 27.5345 43.3334 29.1667 43.3334C31.4937 43.3334 33.5024 44.6959 34.4387 46.6667H43.8947C44.1742 46.0784 44.5494 45.544 45 45.0842V31.6667ZM48.3334 41.6667H55V41.1917L51.6529 36.6667H48.3334V41.6667ZM49.1667 51.6667C50.2552 51.6667 51.1812 50.971 51.5244 50C51.6165 49.7394 51.6667 49.4589 51.6667 49.1667C51.6667 47.786 50.5474 46.6667 49.1667 46.6667C47.786 46.6667 46.6667 47.786 46.6667 49.1667C46.6667 49.4589 46.7169 49.7394 46.809 50C47.1522 50.971 48.0782 51.6667 49.1667 51.6667ZM31.6667 49.1667C31.6667 47.786 30.5474 46.6667 29.1667 46.6667C27.786 46.6667 26.6667 47.786 26.6667 49.1667C26.6667 49.4589 26.7168 49.7394 26.8089 50C27.1521 50.971 28.0782 51.6667 29.1667 51.6667C30.2552 51.6667 31.1812 50.971 31.5244 50C31.6166 49.7394 31.6667 49.4589 31.6667 49.1667Z" fill="#D63964"/>
</svg>
