<svg width="80" height="80" viewBox="0 0 80 80" fill="none" xmlns="http://www.w3.org/2000/svg">
<circle cx="40" cy="40" r="40" fill="#E8EAF5"/>
<path d="M43.7805 40.2444L42.3578 41.667L54.143 53.452L51.786 55.809L40.0008 44.024L28.2158 55.809L25.8587 53.452L41.4233 37.8874C40.444 35.4592 41.4563 31.962 44.1257 29.2926C47.38 26.0382 51.865 25.2468 54.143 27.5248C56.421 29.8029 55.6297 34.2878 52.3752 37.5422C49.7058 40.2115 46.2087 41.2239 43.7805 40.2444ZM27.0372 26.3463L38.2332 37.5422L33.5191 42.2562L27.0372 35.7744C24.4338 33.1709 24.4338 28.9498 27.0372 26.3463ZM50.0182 35.1852C52.1137 33.0898 52.5457 30.6415 51.786 29.8819C51.0263 29.1222 48.578 29.5543 46.4827 31.6496C44.3873 33.745 43.9553 36.1933 44.715 36.9529C45.4745 37.7125 47.9228 37.2805 50.0182 35.1852Z" fill="#4153AF"/>
</svg>
