<svg width="80" height="80" viewBox="0 0 80 80" fill="none" xmlns="http://www.w3.org/2000/svg">
<circle cx="40" cy="40" r="40" fill="#FDECE7"/>
<path d="M34.9409 50C34.5366 52.8269 32.1054 55 29.1667 55C26.2279 55 23.7968 52.8269 23.3924 50H21.6667V30C21.6667 29.0796 22.4129 28.3334 23.3333 28.3334H46.6667C47.5872 28.3334 48.3333 29.0796 48.3333 30V33.3334H53.3333L58.3333 40.0929V50H54.941C54.5365 52.8269 52.1053 55 49.1667 55C46.228 55 43.7968 52.8269 43.3923 50H34.9409ZM45 31.6667H25V45.0842C26.0588 44.0037 27.5344 43.3334 29.1667 43.3334C31.4937 43.3334 33.5024 44.6959 34.4386 46.6667H43.8947C44.1742 46.0784 44.5493 45.544 45 45.0842V31.6667ZM48.3333 41.6667H55V41.1917L51.6528 36.6667H48.3333V41.6667ZM49.1667 51.6667C50.2552 51.6667 51.1812 50.971 51.5243 50C51.6165 49.7394 51.6667 49.4589 51.6667 49.1667C51.6667 47.786 50.5473 46.6667 49.1667 46.6667C47.786 46.6667 46.6667 47.786 46.6667 49.1667C46.6667 49.4589 46.7168 49.7394 46.809 50C47.1522 50.971 48.0782 51.6667 49.1667 51.6667ZM31.6667 49.1667C31.6667 47.786 30.5474 46.6667 29.1667 46.6667C27.786 46.6667 26.6667 47.786 26.6667 49.1667C26.6667 49.4589 26.7168 49.7394 26.8089 50C27.1521 50.971 28.0782 51.6667 29.1667 51.6667C30.2552 51.6667 31.1812 50.971 31.5244 50C31.6165 49.7394 31.6667 49.4589 31.6667 49.1667Z" fill="#EC6237"/>
</svg>
