<svg width="80" height="80" viewBox="0 0 80 80" fill="none" xmlns="http://www.w3.org/2000/svg">
<circle cx="40" cy="40" r="40" fill="#EEEBE9"/>
<path d="M46.6667 21.667C47.5872 21.667 48.3333 22.4132 48.3333 23.3337V28.3337H55C55.9205 28.3337 56.6667 29.0799 56.6667 30.0003V53.3337C56.6667 54.2542 55.9205 55.0003 55 55.0003H25C24.0795 55.0003 23.3333 54.2542 23.3333 53.3337V30.0003C23.3333 29.0799 24.0795 28.3337 25 28.3337H31.6667V23.3337C31.6667 22.4132 32.4129 21.667 33.3333 21.667H46.6667ZM53.3333 31.667H26.6667V51.667H53.3333V31.667ZM41.6667 35.0003V40.0003H46.6667V43.3337H41.665L41.6667 48.3337H38.3333L38.3317 43.3337H33.3333V40.0003H38.3333V35.0003H41.6667ZM45 25.0003H35V28.3337H45V25.0003Z" fill="#74574A"/>
</svg>
