<svg width="24" height="23" viewBox="0 0 24 23" fill="none" xmlns="http://www.w3.org/2000/svg">
<path d="M23.6666 11V21.5C23.6666 22.1443 23.1443 22.6667 22.4999 22.6667H21.3333C20.6889 22.6667 20.1666 22.1443 20.1666 21.5V20.3333H3.83325V21.5C3.83325 22.1443 3.31091 22.6667 2.66659 22.6667H1.49992C0.855592 22.6667 0.333252 22.1443 0.333252 21.5V11L3.22717 4.24752C3.59486 3.38959 4.43845 2.83333 5.37184 2.83333H8.49992V0.5H15.4999V2.83333H18.628C19.5614 2.83333 20.4049 3.38959 20.7727 4.24752L23.6666 11ZM2.87185 11H21.128L18.628 5.16667H5.37184L2.87185 11ZM5.58325 16.8333C6.54975 16.8333 7.33325 16.0498 7.33325 15.0833C7.33325 14.1169 6.54975 13.3333 5.58325 13.3333C4.61675 13.3333 3.83325 14.1169 3.83325 15.0833C3.83325 16.0498 4.61675 16.8333 5.58325 16.8333ZM18.4166 16.8333C19.3831 16.8333 20.1666 16.0498 20.1666 15.0833C20.1666 14.1169 19.3831 13.3333 18.4166 13.3333C17.4501 13.3333 16.6666 14.1169 16.6666 15.0833C16.6666 16.0498 17.4501 16.8333 18.4166 16.8333Z" fill="black"/>
</svg>
