<svg width="17" height="18" viewBox="0 0 17 18" fill="none" xmlns="http://www.w3.org/2000/svg">
<path d="M4.59985 16.1844L0.291992 17.1417L1.24929 12.8338C0.638368 11.6914 0.291992 10.3862 0.291992 9.00008C0.291992 4.5036 3.93711 0.858486 8.43359 0.858486C12.93 0.858486 16.5752 4.5036 16.5752 9.00008C16.5752 13.4965 12.93 17.1417 8.43359 17.1417C7.04748 17.1417 5.7423 16.7953 4.59985 16.1844ZM4.83561 14.4639L5.36769 14.7485C6.30251 15.2483 7.34709 15.5134 8.43359 15.5134C12.0308 15.5134 14.9469 12.5973 14.9469 9.00008C14.9469 5.40289 12.0308 2.4868 8.43359 2.4868C4.8364 2.4868 1.92031 5.40289 1.92031 9.00008C1.92031 10.0866 2.18531 11.1311 2.68521 12.066L2.96973 12.598L2.43662 14.997L4.83561 14.4639Z" fill="#4B5979"/>
</svg>
