<svg width="73" height="75" viewBox="0 0 73 75" fill="none" xmlns="http://www.w3.org/2000/svg">
<ellipse cx="38.2936" cy="33.5" rx="34" ry="33.5" fill="#FFF7E2"/>
<g clip-path="url(#clip0_1_644)">
<path d="M51.9604 71.5271H33.8284V24.376H53.6601V63.7764L51.9604 66.3666V71.5271Z" fill="#EB8D00"/>
<path d="M36.9629 17.1555H33.8274L31.2372 37.864L33.8279 70.9147L36.9629 70.4747V17.1555Z" fill="#FDAE02"/>
<path d="M9.0589 11.9708V17.1551H6.10217V70.4743L22.8174 72.4585L33.8265 70.9143V11.9708H9.0589Z" fill="#FDCB02"/>
<path d="M15.1697 24.4161H18.812V29.5966H15.1697V24.4161Z" fill="#F3FFFB"/>
<path d="M24.2356 24.4161H27.8779V29.5966H24.2356V24.4161Z" fill="#F3FFFB"/>
<path d="M15.1697 34.777H18.812V39.9574H15.1697V34.777Z" fill="#F3FFFB"/>
<path d="M24.2356 34.777H27.8779V39.9574H24.2356V34.777Z" fill="#F3FFFB"/>
<path d="M15.1697 45.1415H18.812V50.3219H15.1697V45.1415Z" fill="#F3FFFB"/>
<path d="M24.2356 45.1415H27.8779V50.3219H24.2356V45.1415Z" fill="#F3FFFB"/>
<path d="M15.1697 55.5H18.812V60.6804H15.1697V55.5Z" fill="#F3FFFB"/>
<path d="M24.2356 55.5H27.8779V60.6804H24.2356V55.5Z" fill="#F3FFFB"/>
<path d="M41.6381 34.7787H45.2804V39.9591H41.6381V34.7787Z" fill="#FDCB02"/>
<path d="M41.6381 45.1395H45.2804V50.32H41.6381V45.1395Z" fill="#FDCB02"/>
<path d="M50.027 63.1532H53.6698V72.2192H50.027V63.1532Z" fill="#8F4D24"/>
<path d="M51.8481 67.4815C47.4628 67.4815 43.8949 63.9136 43.8949 59.5283C43.8949 55.143 47.4628 51.5756 51.8481 51.5756C56.2334 51.5756 59.8008 55.143 59.8008 59.5283C59.8008 63.9136 56.2334 67.4815 51.8481 67.4815Z" fill="#A8D32A"/>
<path d="M59.7296 70.474H33.8265L32.5316 72.8418L33.8265 74.1168H59.7296V70.474Z" fill="#8D9CA8"/>
<path d="M6.10217 70.474H33.826V74.1168H6.10217V70.474Z" fill="#AAB8C7"/>
</g>
<defs>
<clipPath id="clip0_1_644">
<rect width="62.1463" height="62.1463" fill="white" transform="translate(1.8551 11.9707)"/>
</clipPath>
</defs>
</svg>
