<svg width="65" height="69" viewBox="0 0 65 69" fill="none" xmlns="http://www.w3.org/2000/svg">
<path d="M32.9987 35.9266V61.2402H54.3898C57.5925 61.2402 60.1887 58.6248 60.1887 55.3986H54.3898V51.5042H56.3228C59.5316 51.5042 62.1216 48.8948 62.1216 45.6626H54.3898V41.7682H60.1887C62.1467 41.7682 64.0545 40.1553 64.0545 37.8738V35.9266H32.9987Z" fill="#EB8D00"/>
<path d="M32.2164 35.9266V61.2402H10.0876C6.7745 61.2402 4.08878 58.6248 4.08878 55.3986H10.0876V51.5042H8.08797C4.76851 51.5042 2.08919 48.8948 2.08919 45.6626H10.0876V41.7682H4.08878C2.0632 41.7682 0.0895996 40.1553 0.0895996 37.8738V35.9266H32.2164Z" fill="#EB8D00"/>
<path d="M32.6072 26.3761C20.8037 26.3761 11.1893 35.8451 11.1893 47.4707C11.1893 59.0961 20.8037 68.5653 32.6072 68.5653C44.4106 68.5653 54.025 59.0961 54.025 47.4707C54.025 35.8451 44.4106 26.3761 32.6072 26.3761Z" fill="#FFE063"/>
<path d="M54.0253 47.5292C54.0253 59.1545 44.4109 68.6238 32.6074 68.6238V26.4346C44.4109 26.4346 54.0253 35.9036 54.0253 47.5292Z" fill="#FDCB02"/>
<path d="M46.7437 42.9704L36.9866 41.5172L32.608 32.8451L28.2294 41.5172L18.4724 42.9704L25.5163 49.7675L23.898 59.2834L32.608 54.8304L41.3181 59.2835L39.6997 49.7677L46.7437 42.9704Z" fill="#FFBE40"/>
<path d="M41.6821 14.0703H36.6253V22.5H28.5344V14.0703H23.4777L32.5799 0.125L41.6821 14.0703Z" fill="#A8D32A"/>
<path d="M41.6822 14.0703H36.6254V22.5H32.58V0.125L41.6822 14.0703Z" fill="#9CBD3C"/>
<path d="M39.5917 49.6406L41.1856 59.1312L32.6074 54.6899V32.7629L36.9197 41.412L46.529 42.8613L39.5917 49.6406Z" fill="#FF9F40"/>
</svg>
