<svg width="69" height="78" viewBox="0 0 69 78" fill="none" xmlns="http://www.w3.org/2000/svg">
<ellipse cx="34.2935" cy="33.5" rx="34" ry="33.5" fill="#FFF7E2"/>
<g clip-path="url(#clip0_1_679)">
<path d="M55.5714 74.5271H37.4395V27.376H57.2712V66.7764L55.5714 69.3666V74.5271Z" fill="#EB8D00"/>
<path d="M40.5741 20.1555H37.4386L34.8484 40.864L37.4391 73.9147L40.5741 73.4747V20.1555Z" fill="#FDAE02"/>
<path d="M12.6701 14.9708V20.1551H9.71338V73.4743L26.4286 75.4585L37.4377 73.9143V14.9708H12.6701Z" fill="#FDCB02"/>
<path d="M18.781 27.4161H22.4233V32.5966H18.781V27.4161Z" fill="#F3FFFB"/>
<path d="M27.8469 27.4161H31.4893V32.5966H27.8469V27.4161Z" fill="#F3FFFB"/>
<path d="M18.781 37.777H22.4233V42.9574H18.781V37.777Z" fill="#F3FFFB"/>
<path d="M27.8469 37.777H31.4893V42.9574H27.8469V37.777Z" fill="#F3FFFB"/>
<path d="M18.781 48.1415H22.4233V53.3219H18.781V48.1415Z" fill="#F3FFFB"/>
<path d="M27.8469 48.1415H31.4893V53.3219H27.8469V48.1415Z" fill="#F3FFFB"/>
<path d="M18.781 58.5H22.4233V63.6804H18.781V58.5Z" fill="#F3FFFB"/>
<path d="M27.8469 58.5H31.4893V63.6804H27.8469V58.5Z" fill="#F3FFFB"/>
<path d="M45.2493 37.7787H48.8916V42.9591H45.2493V37.7787Z" fill="#FDCB02"/>
<path d="M45.2493 48.1395H48.8916V53.32H45.2493V48.1395Z" fill="#FDCB02"/>
<path d="M53.6382 66.1532H57.281V75.2192H53.6382V66.1532Z" fill="#8F4D24"/>
<path d="M55.4593 70.4815C51.074 70.4815 47.5061 66.9136 47.5061 62.5283C47.5061 58.143 51.074 54.5756 55.4593 54.5756C59.8446 54.5756 63.412 58.143 63.412 62.5283C63.412 66.9136 59.8446 70.4815 55.4593 70.4815Z" fill="#A8D32A"/>
<path d="M63.3408 73.474H37.4377L36.1428 75.8418L37.4377 77.1168H63.3408V73.474Z" fill="#8D9CA8"/>
<path d="M9.71338 73.474H37.4372V77.1168H9.71338V73.474Z" fill="#AAB8C7"/>
</g>
<defs>
<clipPath id="clip0_1_679">
<rect width="62.1463" height="62.1463" fill="white" transform="translate(5.46631 14.9707)"/>
</clipPath>
</defs>
</svg>
