<svg width="20" height="31" viewBox="0 0 20 31" fill="none" xmlns="http://www.w3.org/2000/svg">
<path d="M8.66667 20.2454C3.77419 19.5935 0 15.4043 0 10.3335C0 4.81064 4.47715 0.333496 10 0.333496C15.5228 0.333496 20 4.81064 20 10.3335C20 15.4043 16.2259 19.5935 11.3333 20.2454V23.0002H18V25.6668H11.3333V31.0002H8.66667V25.6668H2V23.0002H8.66667V20.2454ZM10 17.6668C14.0501 17.6668 17.3333 14.3836 17.3333 10.3335C17.3333 6.2834 14.0501 3.00016 10 3.00016C5.94991 3.00016 2.66667 6.2834 2.66667 10.3335C2.66667 14.3836 5.94991 17.6668 10 17.6668Z" fill="#CA1FF4"/>
</svg>
