<svg width="187" height="48" viewBox="0 0 187 48" fill="none" xmlns="http://www.w3.org/2000/svg">
<g clip-path="url(#clip0_1_2211)">
<path d="M36.5896 5.1412L35.7506 3.01061C35.7506 3.01061 35.4058 2.01222 35.236 1.70859C35.1588 1.56449 34.9786 1.35863 34.8191 1.1991C33.9956 0.375682 32.8375 0.020584 31.8081 0.34995C31.1699 0.555804 30.5626 0.838854 30.5626 0.838854C30.5626 0.838854 30.5626 0.838854 30.5574 0.838854L28.4318 1.77034C27.7369 2.07398 27.0266 2.30042 26.2958 2.45481C24.7775 2.77388 23.2128 2.77388 21.7048 2.45481C20.9739 2.30042 20.2585 2.07398 19.5636 1.77034L17.5718 0.90061C17.5718 0.90061 16.4498 0.355097 16.0535 0.236731C15.0653 -0.0566112 13.9587 0.380828 13.1763 1.16307C13.0425 1.29688 12.8263 1.58507 12.7389 1.74976C12.5587 2.09456 12.2396 3.05693 12.2396 3.05693L11.4161 5.15149C11.1382 5.85654 10.7933 6.52042 10.3867 7.14828C10.9735 7.02477 11.6271 7.10711 12.3425 7.42103L15.513 8.8054L18.1894 9.97362L18.2924 10.0199L21.4886 11.4095C23.0893 12.1094 24.9113 12.1094 26.512 11.4095L29.7082 10.0148L29.8111 9.96848L32.4875 8.80026L35.658 7.41589C36.3734 7.10711 37.0271 7.01447 37.6138 7.14313C37.2072 6.51528 36.8624 5.8514 36.5844 5.14635L36.5896 5.1412Z" fill="#221ECA"/>
<path d="M42.8364 36.6059L44.9672 35.7671L46.2693 35.2525H46.2796C46.4598 35.1289 46.6193 34.9951 46.7789 34.8356C47.6024 34.0122 47.9009 32.8594 47.6744 31.8044V31.7993L47.1443 30.5796C47.1443 30.5796 47.1443 30.5796 47.1443 30.5744L46.2127 28.449C45.9091 27.7542 45.6826 27.044 45.5282 26.3132C45.2091 24.7951 45.2091 23.2306 45.5282 21.7227C45.6826 20.9919 45.9091 20.2766 46.2127 19.5818L47.0825 17.5902L47.7465 16.072C47.9112 15.0582 47.6024 13.9775 46.8201 13.1952C46.6862 13.0614 46.537 12.9379 46.3877 12.8298L44.9311 12.2586L42.8364 11.4352C42.1312 11.1573 41.4673 10.8124 40.8394 10.4059C40.9629 10.9926 40.8805 11.6462 40.5666 12.3615L39.182 15.5316L38.0137 18.2077L37.9674 18.3107L36.5777 21.5066C35.8777 23.1071 35.8777 24.9289 36.5777 26.5294L37.9725 29.7253L38.0189 29.8282L39.1872 32.5043L40.5717 35.6745C40.8805 36.3898 40.9732 37.0434 40.8445 37.6301C41.4724 37.2235 42.1364 36.8787 42.8415 36.6008L42.8364 36.6059Z" fill="#221ECA"/>
<path d="M11.3602 42.8587L12.1991 44.9893C12.1991 44.9893 12.544 45.9877 12.7138 46.2913C12.791 46.4354 12.9712 46.6413 13.1307 46.8008C13.9542 47.6242 15.1123 47.9793 16.1416 47.65C16.7799 47.4441 17.3872 47.1611 17.3872 47.1611C17.3872 47.1611 17.3872 47.1611 17.3923 47.1611L19.518 46.2347C20.2128 45.9311 20.9231 45.7046 21.654 45.5503C23.1723 45.2312 24.737 45.2312 26.245 45.5503C26.9759 45.7046 27.6913 45.9311 28.3861 46.2347L30.378 47.1045C30.378 47.1045 31.5 47.65 31.8963 47.7683C32.8845 48.0617 33.9911 47.6242 34.7734 46.842C34.9072 46.7082 35.1234 46.42 35.2109 46.2553C35.3911 45.9105 35.7102 44.9481 35.7102 44.9481L36.5337 42.8536C36.8116 42.1485 37.1564 41.4846 37.563 40.8568C36.9763 40.9803 36.3226 40.898 35.6072 40.584L32.4367 39.1997L29.7603 38.0314L29.6574 37.9851L26.4612 36.5956C24.8605 35.8957 23.0385 35.8957 21.4378 36.5956L18.2416 37.9903L18.1386 38.0366L15.4623 39.2048L12.2918 40.5892C11.5763 40.898 10.9227 40.9906 10.3359 40.8619C10.7425 41.4898 11.0874 42.1537 11.3653 42.8587H11.3602Z" fill="#221ECA"/>
<path d="M5.11717 11.394L2.98635 12.2329L1.68419 12.7475H1.67389C1.49375 12.871 1.3342 13.0048 1.17465 13.1643C0.351141 13.9878 0.0526209 15.1405 0.279085 16.1955V16.2007L0.809215 17.4204C0.809215 17.4204 0.809215 17.4204 0.809215 17.4255L1.7408 19.551C2.04447 20.2457 2.27094 20.9559 2.42534 21.6867C2.74445 23.2049 2.74445 24.7694 2.42534 26.2772C2.27094 27.008 2.04447 27.7234 1.7408 28.4181L0.870978 30.4098L0.207028 31.9279C0.0423271 32.9418 0.351141 34.0225 1.13347 34.8047C1.26729 34.9385 1.41655 35.0621 1.56581 35.1701L3.02238 35.7414L5.11717 36.5648C5.8223 36.8427 6.48625 37.1875 7.11417 37.5941C6.99064 37.0074 7.07299 36.3538 7.38696 35.6384L8.77147 32.4683L9.93982 29.7922L9.98614 29.6893L11.3758 26.4934C12.0758 24.8929 12.0758 23.0711 11.3758 21.4705L9.98099 18.2747L9.93467 18.1717L8.76632 15.4956L7.38181 12.3255C7.07299 11.6101 6.98035 10.9566 7.10902 10.3699C6.4811 10.7764 5.81715 11.1212 5.11202 11.3991L5.11717 11.394Z" fill="#221ECA"/>
<path d="M19.5435 1.5542L17.4281 0.627855C17.4281 0.627855 16.4708 0.159537 16.1311 0.0669025C15.9715 0.0205854 15.6936 0 15.4723 0C14.2937 0 13.218 0.576391 12.7187 1.5439C12.4099 2.14603 12.1783 2.77903 12.1783 2.77903L11.3239 4.95594C11.046 5.66613 10.7011 6.33516 10.2894 6.96816C9.43498 8.28048 8.3181 9.39723 7.01594 10.2412C6.38802 10.6529 5.70862 11.0029 4.99835 11.2808L2.95503 12.0836C2.95503 12.0836 1.7661 12.4953 1.39552 12.6909C0.484521 13.1849 0.00585938 14.2863 0.00585938 15.403C0.00585938 15.5934 0.0573284 15.9537 0.113944 16.1287C0.232323 16.5043 0.68525 17.4152 0.68525 17.4152L1.59625 19.4944C1.8433 20.0605 2.03888 20.642 2.18814 21.2338C2.22932 21.3934 2.4249 21.45 2.53813 21.3265C2.86239 20.9714 3.31017 20.678 3.87633 20.4567L7.12402 19.1804L9.86732 18.1049L9.9754 18.0637L13.2437 16.772C14.8855 16.1287 16.1826 14.8266 16.8259 13.1952L18.1127 9.92216L18.1538 9.81409L19.2295 7.07108L20.506 3.82374C20.7324 3.25764 21.0207 2.80991 21.3809 2.48569C21.5045 2.37247 21.4478 2.17691 21.2883 2.13574C20.6964 1.98649 20.1199 1.79093 19.5538 1.5439L19.5435 1.5542Z" fill="#FFC005"/>
<path d="M46.4444 19.5404L47.3709 17.4253L47.937 16.1284V16.1181C47.9782 15.9071 47.9988 15.691 47.9988 15.4697C47.9988 14.2911 47.3915 13.2619 46.4753 12.6649L45.2298 12.176L43.0526 11.3217C42.3423 11.0438 41.6732 10.699 41.0402 10.2873C39.7277 9.43299 38.6108 8.31624 37.7667 7.01421C37.355 6.38636 37.005 5.70704 36.7271 4.99684L35.9242 2.95374L35.3271 1.42528C35.3271 1.42528 35.3117 1.38925 35.2962 1.36867C34.6889 0.540103 33.711 0.00488281 32.6044 0.00488281C32.414 0.00488281 32.2184 0.0203219 32.0382 0.0563463L30.592 0.684201L28.5126 1.5951C27.9465 1.84213 27.3649 2.03769 26.773 2.18693C26.6134 2.22811 26.5568 2.42367 26.6803 2.53689C27.0355 2.86111 27.3288 3.30884 27.5501 3.87494L28.8266 7.12228L29.9023 9.86529L29.9435 9.97336L31.2353 13.2413C31.8787 14.883 33.1809 16.1799 34.8124 16.8232L38.0859 18.1097L38.1939 18.1509L40.9372 19.2265L44.1849 20.5028C44.7511 20.7292 45.1989 21.0174 45.5231 21.3777C45.6364 21.5012 45.8319 21.4446 45.8731 21.285C46.0224 20.6932 46.218 20.1168 46.465 19.5507L46.4444 19.5404Z" fill="#FF0C5D"/>
<path d="M28.4533 46.4457L30.5687 47.3721C30.5687 47.3721 31.526 47.8404 31.8657 47.9382C32.0253 47.9845 32.3032 48.0051 32.5245 48.0051C33.7032 48.0051 34.7789 47.4287 35.2781 46.4612C35.5869 45.8591 35.8185 45.2261 35.8185 45.2261L36.6729 43.0491C36.9508 42.339 37.2957 41.6699 37.7074 41.0369C38.5618 39.7246 39.6787 38.6078 40.9809 37.7638C41.6088 37.3521 42.2882 37.0022 42.9985 36.7243L45.0418 35.9215C45.0418 35.9215 46.2307 35.5097 46.6013 35.3142C47.5123 34.8201 47.9909 33.7188 47.9909 32.6021C47.9909 32.4116 47.9395 32.0514 47.8829 31.8764C47.7645 31.5007 47.3116 30.5898 47.3116 30.5898L46.4006 28.5107C46.1535 27.9446 45.9579 27.3631 45.8087 26.7712C45.7675 26.6117 45.5719 26.5551 45.4587 26.6786C45.1344 27.0337 44.6866 27.327 44.1205 27.5483L40.8728 28.8246L38.1295 29.9002L38.0214 29.9414L34.7531 31.2331C33.1113 31.8764 31.8142 33.1784 31.1709 34.8098L29.8842 38.0829L29.843 38.191L28.7673 40.934L27.4908 44.1813C27.2644 44.7474 26.9762 45.1952 26.6159 45.5194C26.4923 45.6326 26.549 45.8282 26.7085 45.8693C27.3004 46.0186 27.8769 46.2142 28.443 46.4612L28.4533 46.4457Z" fill="#FFC005"/>
<path d="M1.55436 28.4593L0.627922 30.5745L0.0617628 31.8714V31.8817C0.0205876 32.0927 0 32.3088 0 32.5301C0 33.7086 0.607334 34.7379 1.52348 35.3349L2.76903 35.8238L4.94617 36.6781C5.65644 36.956 6.32554 37.3008 6.95861 37.7125C8.27107 38.5668 9.38795 39.6835 10.232 40.9856C10.6438 41.6134 10.9938 42.2927 11.2717 43.0029L12.0746 45.046L12.6717 46.5745C12.6717 46.5745 12.6871 46.6105 12.7025 46.6311C13.3099 47.4597 14.2878 47.9949 15.3944 47.9949C15.5848 47.9949 15.7804 47.9794 15.9605 47.9434L17.4068 47.3156L19.4862 46.4047C20.0523 46.1576 20.6339 45.9621 21.2258 45.8128C21.3854 45.7717 21.442 45.5761 21.3185 45.4629C20.9633 45.1387 20.67 44.6909 20.4486 44.1248L19.1722 40.8775L18.0965 38.1345L18.0553 38.0264L16.7635 34.7585C16.1201 33.1168 14.8179 31.8199 13.1864 31.1766L9.91293 29.89L9.80484 29.8489L7.06155 28.7733L3.81385 27.497C3.24769 27.2705 2.79991 26.9823 2.47566 26.6221C2.36243 26.4986 2.16685 26.5552 2.12567 26.7147C1.97641 27.3066 1.78083 27.8829 1.53378 28.449L1.55436 28.4593Z" fill="#FF0C5D"/>
</g>
<path d="M65.2126 19.0393C65.2126 18.6277 65.3669 18.2823 65.6756 18.003C65.9989 17.7091 66.3884 17.5621 66.8441 17.5621H76.8755C76.8755 18.5322 76.7139 19.2377 76.3905 19.6786C76.0672 20.1196 75.5454 20.34 74.8252 20.34H68.4535V23.7133H74.2299C74.2299 24.6833 74.0682 25.3888 73.7449 25.8298C73.4215 26.2707 72.8997 26.4912 72.1795 26.4912H68.4535V30.9668C68.4535 31.7458 68.1963 32.3117 67.6819 32.6644C67.1821 33.0172 66.359 33.1935 65.2126 33.1935V19.0393ZM79.3038 19.7227C79.3038 18.9878 79.5831 18.4146 80.1416 18.003C80.7149 17.5768 81.5159 17.3637 82.5448 17.3637V30.8345C82.5448 31.5841 82.2582 32.1647 81.6849 32.5762C81.1264 32.9878 80.3327 33.1935 79.3038 33.1935V19.7227ZM85.4081 19.0393C85.4081 18.613 85.5625 18.2603 85.8711 17.981C86.1945 17.7017 86.584 17.5621 87.0396 17.5621H92.838C94.4842 17.5621 95.7483 17.9883 96.6302 18.8408C97.5267 19.6786 97.975 20.8765 97.975 22.4345C97.975 23.3017 97.7987 24.0293 97.4459 24.6172C97.1078 25.2051 96.5787 25.6681 95.8585 26.0062V26.0944C97.1372 26.6676 97.7766 27.7479 97.7766 29.3353V30.8565C97.7766 31.6208 97.4973 32.2014 96.9388 32.5983C96.395 32.9951 95.5939 33.1935 94.5357 33.1935V29.4455C94.5357 28.7106 94.3887 28.1741 94.0947 27.8361C93.8155 27.4833 93.3819 27.3069 92.7939 27.3069H88.605V30.8565C88.605 31.6208 88.3331 32.2014 87.7892 32.5983C87.2454 32.9951 86.4517 33.1935 85.4081 33.1935V19.0393ZM92.6617 24.5511C93.3378 24.5511 93.8522 24.3673 94.205 23.9999C94.5577 23.6324 94.7341 23.1033 94.7341 22.4125C94.7341 21.6923 94.5651 21.1631 94.227 20.8251C93.9037 20.487 93.3819 20.318 92.6617 20.318H88.605V24.5511H92.6617ZM100.178 19.7227C100.178 19.0025 100.472 18.4293 101.06 18.003C101.648 17.5621 102.434 17.3416 103.419 17.3416L107.828 28.5857L107.277 30.0849L107.52 30.1951L112.26 17.3637C113.245 17.3637 114.031 17.5841 114.619 18.0251C115.207 18.4513 115.501 19.0246 115.501 19.7448V33.1935C113.399 33.1935 112.348 32.4219 112.348 30.8786V24.5731L113.142 22.3684L112.877 22.2802L109.129 32.3337C109.026 32.5836 108.857 32.7893 108.622 32.951C108.387 33.1127 108.13 33.1935 107.85 33.1935C107.556 33.1935 107.292 33.1127 107.057 32.951C106.822 32.7893 106.653 32.5762 106.55 32.3117L102.802 22.2361L102.537 22.3463L103.331 24.5511V30.8786C103.331 32.4219 102.28 33.1935 100.178 33.1935V19.7227ZM117.919 19.0393C117.919 18.6277 118.073 18.2823 118.382 18.003C118.705 17.7091 119.095 17.5621 119.551 17.5621H129.582C129.582 18.5322 129.42 19.2377 129.097 19.6786C128.774 20.1196 128.252 20.34 127.532 20.34H121.16V23.7133H126.936C126.936 24.6833 126.775 25.3888 126.451 25.8298C126.128 26.2707 125.606 26.4912 124.886 26.4912H121.16V30.9668C121.16 31.7458 120.903 32.3117 120.388 32.6644C119.889 33.0172 119.066 33.1935 117.919 33.1935V19.0393ZM130.191 33.1935C129.485 33.1347 128.934 32.9069 128.537 32.5101C128.14 32.1132 127.942 31.6135 127.942 31.0109C127.942 30.5405 128.06 30.0481 128.295 29.5337L133.277 18.444C133.439 18.0765 133.645 17.8046 133.895 17.6282C134.159 17.4519 134.483 17.3637 134.865 17.3637C135.247 17.3637 135.563 17.4519 135.813 17.6282C136.077 17.8046 136.29 18.0765 136.452 18.444L141.435 29.5337C141.67 30.0481 141.788 30.5332 141.788 30.9888C141.788 31.6061 141.589 32.1132 141.192 32.5101C140.795 32.9069 140.237 33.1347 139.517 33.1935L137.665 29.1589H132.043L130.191 33.1935ZM136.673 26.381L134.402 20.7369L134.093 20.8692L134.688 22.3463L133.013 26.381H136.673ZM149.633 33.1935C148.31 33.1935 147.127 32.9363 146.084 32.4219C145.04 31.9075 144.224 31.1946 143.636 30.2833C143.063 29.3573 142.776 28.3064 142.776 27.1306V23.3826C142.776 22.2067 143.056 21.1631 143.614 20.2519C144.187 19.3406 144.981 18.6351 145.995 18.1353C147.024 17.6209 148.193 17.3637 149.501 17.3637C150.809 17.3637 151.977 17.5621 153.006 17.9589C154.035 18.3411 154.829 18.8849 155.387 19.5904C155.961 20.2959 156.247 21.097 156.247 21.9936C156.247 22.5815 156.056 23.0445 155.674 23.3826C155.292 23.7059 154.77 23.8676 154.109 23.8676C153.727 23.8676 153.352 23.8161 152.984 23.7133C153.028 23.4046 153.05 23.0298 153.05 22.5889C153.05 21.8833 152.72 21.3101 152.058 20.8692C151.397 20.4135 150.544 20.1857 149.501 20.1857C148.472 20.1857 147.634 20.487 146.987 21.0896C146.341 21.6776 146.017 22.4419 146.017 23.3826V27.1306C146.017 28.0859 146.348 28.8649 147.009 29.4676C147.686 30.0702 148.56 30.3715 149.633 30.3715C150.677 30.3715 151.522 30.151 152.169 29.7101C152.83 29.2691 153.161 28.6959 153.161 27.9904C153.161 27.5054 153.139 27.1526 153.095 26.9321C153.491 26.844 153.851 26.7999 154.175 26.7999C154.836 26.7999 155.365 26.9689 155.762 27.3069C156.159 27.645 156.357 28.108 156.357 28.6959C156.357 29.5631 156.071 30.3421 155.498 31.0329C154.939 31.709 154.145 32.2382 153.117 32.6203C152.102 33.0025 150.941 33.1935 149.633 33.1935ZM161.993 20.3621H156.68C156.68 18.4954 157.525 17.5621 159.215 17.5621H170.526C170.526 19.4288 169.68 20.3621 167.99 20.3621H165.234V30.8565C165.234 31.6208 164.955 32.2014 164.396 32.5983C163.853 32.9951 163.052 33.1935 161.993 33.1935V20.3621ZM173.32 32.9951C172.864 32.9951 172.504 32.8702 172.239 32.6203C171.975 32.3704 171.843 32.0397 171.843 31.6282C171.843 31.246 171.945 30.93 172.151 30.6802L181.808 19.4802L181.587 19.3038L180.661 20.318H174.665C173.915 20.318 173.342 20.0828 172.945 19.6125C172.563 19.1421 172.372 18.4587 172.372 17.5621H184.211C184.681 17.5621 185.041 17.6797 185.291 17.9149C185.556 18.15 185.688 18.4881 185.688 18.929C185.688 19.3112 185.585 19.6272 185.379 19.8771L175.833 31.077L176.054 31.2534L176.957 30.2392H183.461C184.196 30.2392 184.755 30.4744 185.137 30.9447C185.534 31.4151 185.732 32.0985 185.732 32.9951H173.32Z" fill="black"/>
<defs>
<clipPath id="clip0_1_2211">
<rect width="48" height="48" fill="white"/>
</clipPath>
</defs>
</svg>
