<svg width="219" height="182" viewBox="0 0 219 182" fill="none" xmlns="http://www.w3.org/2000/svg">
<path d="M11.8088 57.6185L11.8041 57.6301L11.7998 57.6417C4.59639 77.0355 1 98.0784 1 120.761V173.746C1 177.423 3.98045 180.403 7.657 180.403H80.5889C84.2655 180.403 87.2459 177.423 87.2459 173.746V100.814C87.2459 97.1377 84.2655 94.1572 80.5889 94.1572H48.5596C49.6917 85.4683 51.826 77.1171 54.9616 69.1016C59.8741 57.3157 68.352 44.371 80.4389 30.2655C82.9715 27.3099 82.538 22.7914 79.3896 20.4503L56.1334 3.15728C53.4569 1.16707 49.6976 1.45425 47.4053 3.91084C30.9567 21.5384 19.0802 39.4398 11.8088 57.6185ZM150.567 57.6185L150.562 57.6301L150.558 57.6417C143.354 77.0355 139.758 98.0784 139.758 120.761V173.746C139.758 177.423 142.738 180.403 146.415 180.403H219.347C223.023 180.403 226.004 177.423 226.004 173.746V100.814C226.004 97.1377 223.023 94.1572 219.347 94.1572H187.318C188.45 85.4684 190.584 77.1173 193.719 69.1018C198.632 57.3159 207.11 44.3711 219.197 30.2655C221.73 27.3099 221.296 22.7914 218.148 20.4503L194.891 3.15728C192.215 1.16707 188.456 1.45425 186.163 3.91084C169.715 21.5384 157.838 39.4398 150.567 57.6185Z" fill="white" stroke="#F3F3F3" stroke-width="2"/>
<mask id="mask0_0_1" style="mask-type:alpha" maskUnits="userSpaceOnUse" x="104" y="0" width="115" height="189">
<rect x="104" y="3.05176e-05" width="115" height="189" fill="white"/>
</mask>
<g mask="url(#mask0_0_1)">
<path d="M123.809 57.6185L123.804 57.6301L123.8 57.6417C116.596 77.0355 113 98.0784 113 120.761V173.746C113 177.423 115.98 180.403 119.657 180.403H192.589C196.265 180.403 199.246 177.423 199.246 173.746V100.814C199.246 97.1377 196.265 94.1572 192.589 94.1572H160.56C161.692 85.4683 163.826 77.1171 166.962 69.1016C171.874 57.3157 180.352 44.371 192.439 30.2655C194.972 27.3099 194.538 22.7914 191.39 20.4503L168.133 3.15728C165.457 1.16707 161.698 1.45425 159.405 3.91084C142.957 21.5384 131.08 39.4398 123.809 57.6185ZM262.567 57.6185L262.562 57.6301L262.558 57.6417C255.354 77.0355 251.758 98.0784 251.758 120.761V173.746C251.758 177.423 254.738 180.403 258.415 180.403H331.347C335.023 180.403 338.004 177.423 338.004 173.746V100.814C338.004 97.1377 335.023 94.1572 331.347 94.1572H299.318C300.45 85.4684 302.584 77.1173 305.719 69.1018C310.632 57.3159 319.11 44.3711 331.197 30.2655C333.73 27.3099 333.296 22.7914 330.148 20.4503L306.891 3.15728C304.215 1.16707 300.456 1.45425 298.163 3.91084C281.715 21.5384 269.838 39.4398 262.567 57.6185Z" fill="white" stroke="#F3F3F3" stroke-width="2"/>
</g>
</svg>
