<svg width="19" height="17" viewBox="0 0 19 17" fill="none" xmlns="http://www.w3.org/2000/svg">
<path d="M1.16816 6.55758H3.61064V16.3275H1.16816C0.718519 16.3275 0.354004 15.963 0.354004 15.5134V7.37174C0.354004 6.92209 0.718519 6.55758 1.16816 6.55758ZM5.47742 5.50496L10.6885 0.293957C10.8317 0.150706 11.0585 0.134593 11.2205 0.256139L11.9147 0.776745C12.3093 1.07271 12.4871 1.57701 12.3654 2.05502L11.4264 5.74342H16.6372C17.5365 5.74342 18.2655 6.47244 18.2655 7.37174V9.085C18.2655 9.29774 18.2238 9.50836 18.1429 9.70498L15.6236 15.8233C15.4979 16.1284 15.2006 16.3275 14.8707 16.3275H6.05312C5.60348 16.3275 5.23896 15.963 5.23896 15.5134V6.08066C5.23896 5.86473 5.32474 5.65765 5.47742 5.50496Z" fill="#4B5979"/>
</svg>
