<svg width="26" height="26" viewBox="0 0 26 26" fill="none" xmlns="http://www.w3.org/2000/svg">
<path d="M16.0655 7.38221L20.7811 2.66667H14.6667V0H25.3333V10.6667H22.6667V4.55228L17.9511 9.26784C19.2365 10.9503 20 13.0527 20 15.3333C20 20.8561 15.5228 25.3333 10 25.3333C4.47715 25.3333 0 20.8561 0 15.3333C0 9.81053 4.47715 5.33333 10 5.33333C12.2807 5.33333 14.3831 6.09685 16.0655 7.38221ZM10 22.6667C14.0501 22.6667 17.3333 19.3835 17.3333 15.3333C17.3333 11.2832 14.0501 8 10 8C5.94991 8 2.66667 11.2832 2.66667 15.3333C2.66667 19.3835 5.94991 22.6667 10 22.6667Z" fill="#3069D8"/>
</svg>
