<svg width="199" height="62" viewBox="0 0 199 62" fill="none" xmlns="http://www.w3.org/2000/svg">
<rect x="0.5" y="0.5" width="198" height="57" rx="28.5" fill="#EC6237" fill-opacity="0.06" stroke="#FFEAE2"/>
<g filter="url(#filter0_f_1_2234)">
<circle cx="29" cy="35" r="21" fill="#EC6237" fill-opacity="0.3"/>
</g>
<circle cx="29" cy="29" r="24" fill="#EC6237"/>
<path opacity="0.6" d="M61.13 22L65.212 12.835H66.369L70.516 22H69.125L67.994 19.4L68.566 19.764H63.015L63.626 19.4L62.495 22H61.13ZM65.771 14.317L63.795 18.984L63.483 18.685H68.098L67.838 18.984L65.823 14.317H65.771ZM74.056 22.117C73.484 22.117 72.977 21.9827 72.535 21.714C72.1016 21.4453 71.7636 21.0553 71.521 20.544C71.287 20.0327 71.17 19.426 71.17 18.724C71.17 18.0133 71.287 17.4067 71.521 16.904C71.7636 16.4013 72.1016 16.0157 72.535 15.747C72.977 15.4697 73.484 15.331 74.056 15.331C74.6193 15.331 75.1133 15.474 75.538 15.76C75.9713 16.0373 76.2573 16.4187 76.396 16.904H76.24V12.432H77.553V22H76.253V20.518H76.409C76.2616 21.012 75.9756 21.402 75.551 21.688C75.1263 21.974 74.628 22.117 74.056 22.117ZM74.381 21.09C74.9443 21.09 75.3993 20.8907 75.746 20.492C76.0926 20.0933 76.266 19.504 76.266 18.724C76.266 17.944 76.0926 17.359 75.746 16.969C75.3993 16.5703 74.9443 16.371 74.381 16.371C73.809 16.371 73.3496 16.5703 73.003 16.969C72.665 17.359 72.496 17.944 72.496 18.724C72.496 19.504 72.665 20.0933 73.003 20.492C73.3496 20.8907 73.809 21.09 74.381 21.09ZM81.9778 22.117C81.4058 22.117 80.8988 21.9827 80.4568 21.714C80.0235 21.4453 79.6855 21.0553 79.4428 20.544C79.2088 20.0327 79.0918 19.426 79.0918 18.724C79.0918 18.0133 79.2088 17.4067 79.4428 16.904C79.6855 16.4013 80.0235 16.0157 80.4568 15.747C80.8988 15.4697 81.4058 15.331 81.9778 15.331C82.5412 15.331 83.0352 15.474 83.4598 15.76C83.8932 16.0373 84.1792 16.4187 84.3178 16.904H84.1618V12.432H85.4748V22H84.1748V20.518H84.3308C84.1835 21.012 83.8975 21.402 83.4728 21.688C83.0482 21.974 82.5498 22.117 81.9778 22.117ZM82.3028 21.09C82.8662 21.09 83.3212 20.8907 83.6678 20.492C84.0145 20.0933 84.1878 19.504 84.1878 18.724C84.1878 17.944 84.0145 17.359 83.6678 16.969C83.3212 16.5703 82.8662 16.371 82.3028 16.371C81.7308 16.371 81.2715 16.5703 80.9248 16.969C80.5868 17.359 80.4178 17.944 80.4178 18.724C80.4178 19.504 80.5868 20.0933 80.9248 20.492C81.2715 20.8907 81.7308 21.09 82.3028 21.09Z" fill="black"/>
<path d="M61.88 39.352C61.88 38.168 62.0933 37.144 62.52 36.28C62.9573 35.416 63.5813 34.7493 64.392 34.28C65.2027 33.8 66.168 33.56 67.288 33.56C68.3973 33.56 69.3573 33.8 70.168 34.28C70.9787 34.7493 71.6027 35.416 72.04 36.28C72.488 37.144 72.712 38.1627 72.712 39.336C72.712 40.52 72.488 41.5493 72.04 42.424C71.6027 43.288 70.9787 43.96 70.168 44.44C69.3573 44.92 68.3973 45.16 67.288 45.16C66.168 45.16 65.2027 44.92 64.392 44.44C63.592 43.96 62.9733 43.288 62.536 42.424C62.0987 41.5493 61.88 40.5253 61.88 39.352ZM64.04 39.352C64.04 40.6213 64.312 41.6133 64.856 42.328C65.4 43.0427 66.2107 43.4 67.288 43.4C68.3333 43.4 69.1387 43.0427 69.704 42.328C70.2693 41.6133 70.552 40.6213 70.552 39.352C70.552 38.072 70.2693 37.08 69.704 36.376C69.1493 35.672 68.344 35.32 67.288 35.32C66.2107 35.32 65.4 35.672 64.856 36.376C64.312 37.08 64.04 38.072 64.04 39.352ZM75.2258 45V38.424H73.6738V36.92H75.7858L75.2258 37.432V36.2C75.2258 35.1973 75.4818 34.44 75.9938 33.928C76.5164 33.416 77.2791 33.16 78.2818 33.16C78.5164 33.16 78.7618 33.176 79.0178 33.208C79.2844 33.24 79.5138 33.2987 79.7058 33.384V34.952C79.5671 34.8987 79.4018 34.856 79.2098 34.824C79.0178 34.792 78.8311 34.776 78.6498 34.776C78.3724 34.776 78.1218 34.8293 77.8978 34.936C77.6844 35.0427 77.5138 35.208 77.3858 35.432C77.2684 35.6453 77.2098 35.9333 77.2098 36.296V37.272L76.9218 36.92H79.3378V38.424H77.2258V45H75.2258ZM80.757 45V38.424H79.205V36.92H81.317L80.757 37.432V36.2C80.757 35.1973 81.0077 34.44 81.509 33.928C82.021 33.416 82.7623 33.16 83.733 33.16C83.9677 33.16 84.213 33.176 84.469 33.208C84.7357 33.24 84.965 33.2987 85.157 33.384V34.952C85.0183 34.8987 84.853 34.856 84.661 34.824C84.469 34.792 84.2823 34.776 84.101 34.776C83.685 34.776 83.3543 34.8987 83.109 35.144C82.8637 35.3787 82.741 35.7627 82.741 36.296V37.272L82.453 36.92H88.069V45H86.069V38.424H82.757V45H80.757ZM85.957 35.4V33.448H88.181V35.4H85.957ZM93.9563 45.16C93.1243 45.16 92.3936 44.9893 91.7643 44.648C91.1456 44.3067 90.6656 43.8213 90.3243 43.192C89.9829 42.552 89.8123 41.7947 89.8123 40.92C89.8123 40.0453 89.9829 39.2987 90.3243 38.68C90.6763 38.0613 91.1616 37.5867 91.7803 37.256C92.3989 36.9253 93.1243 36.76 93.9563 36.76C94.4896 36.76 95.0069 36.8453 95.5083 37.016C96.0203 37.176 96.4363 37.4107 96.7563 37.72L96.1483 39.112C95.8603 38.8453 95.5349 38.648 95.1723 38.52C94.8203 38.3813 94.4736 38.312 94.1323 38.312C93.4176 38.312 92.8576 38.536 92.4523 38.984C92.0576 39.432 91.8603 40.0827 91.8603 40.936C91.8603 41.7893 92.0576 42.4453 92.4523 42.904C92.8576 43.3627 93.4176 43.592 94.1323 43.592C94.4629 43.592 94.8043 43.528 95.1563 43.4C95.5189 43.272 95.8496 43.0747 96.1483 42.808L96.7563 44.184C96.4256 44.4933 96.0043 44.7333 95.4923 44.904C94.9909 45.0747 94.4789 45.16 93.9563 45.16ZM102.055 45.16C100.7 45.16 99.6385 44.7867 98.8705 44.04C98.1025 43.2933 97.7185 42.2693 97.7185 40.968C97.7185 40.1253 97.8838 39.3893 98.2145 38.76C98.5452 38.1307 99.0038 37.64 99.5905 37.288C100.188 36.936 100.881 36.76 101.671 36.76C102.449 36.76 103.1 36.9253 103.623 37.256C104.145 37.5867 104.54 38.0507 104.807 38.648C105.084 39.2453 105.223 39.944 105.223 40.744V41.272H99.3345V40.216H103.799L103.527 40.44C103.527 39.6933 103.367 39.1227 103.047 38.728C102.737 38.3333 102.284 38.136 101.687 38.136C101.025 38.136 100.513 38.3707 100.151 38.84C99.7985 39.3093 99.6225 39.9653 99.6225 40.808V41.016C99.6225 41.8907 99.8358 42.5467 100.263 42.984C100.7 43.4107 101.313 43.624 102.103 43.624C102.561 43.624 102.988 43.5653 103.383 43.448C103.788 43.32 104.172 43.1173 104.535 42.84L105.127 44.184C104.743 44.4933 104.284 44.7333 103.751 44.904C103.217 45.0747 102.652 45.16 102.055 45.16ZM111.467 45V33.72H116.475C117.712 33.72 118.656 34.0187 119.307 34.616C119.957 35.2133 120.283 36.0347 120.283 37.08C120.283 38.1147 119.957 38.936 119.307 39.544C118.656 40.152 117.712 40.456 116.475 40.456H113.531V45H111.467ZM113.531 38.824H116.235C116.917 38.824 117.429 38.6747 117.771 38.376C118.112 38.0667 118.283 37.6347 118.283 37.08C118.283 36.5253 118.112 36.0987 117.771 35.8C117.429 35.4907 116.917 35.336 116.235 35.336H113.531V38.824ZM121.963 45V33.224H123.963V38.536H123.739C123.984 37.96 124.363 37.5227 124.875 37.224C125.387 36.9147 125.974 36.76 126.635 36.76C127.595 36.76 128.31 37.032 128.779 37.576C129.248 38.1093 129.483 38.9253 129.483 40.024V45H127.483V40.12C127.483 39.4907 127.36 39.0373 127.115 38.76C126.88 38.472 126.502 38.328 125.979 38.328C125.371 38.328 124.88 38.52 124.507 38.904C124.144 39.2773 123.963 39.7787 123.963 40.408V45H121.963ZM135.252 45.16C134.42 45.16 133.7 44.9893 133.092 44.648C132.484 44.3067 132.009 43.8213 131.668 43.192C131.337 42.5627 131.172 41.816 131.172 40.952C131.172 40.088 131.337 39.3467 131.668 38.728C132.009 38.0987 132.484 37.6133 133.092 37.272C133.7 36.9307 134.42 36.76 135.252 36.76C136.084 36.76 136.804 36.9307 137.412 37.272C138.03 37.6133 138.505 38.0987 138.836 38.728C139.177 39.3467 139.348 40.088 139.348 40.952C139.348 41.816 139.177 42.5627 138.836 43.192C138.505 43.8213 138.03 44.3067 137.412 44.648C136.804 44.9893 136.084 45.16 135.252 45.16ZM135.252 43.624C135.881 43.624 136.382 43.4053 136.756 42.968C137.129 42.52 137.316 41.848 137.316 40.952C137.316 40.056 137.129 39.3893 136.756 38.952C136.382 38.5147 135.881 38.296 135.252 38.296C134.622 38.296 134.121 38.5147 133.748 38.952C133.374 39.3893 133.188 40.056 133.188 40.952C133.188 41.848 133.374 42.52 133.748 42.968C134.121 43.4053 134.622 43.624 135.252 43.624ZM144.45 45.16C143.49 45.16 142.765 44.9093 142.274 44.408C141.784 43.9067 141.538 43.1547 141.538 42.152V38.424H139.986V36.92H141.538V34.856L143.538 34.344V36.92H145.698V38.424H143.538V42.024C143.538 42.5787 143.645 42.968 143.858 43.192C144.072 43.416 144.365 43.528 144.738 43.528C144.941 43.528 145.112 43.512 145.25 43.48C145.4 43.448 145.544 43.4053 145.682 43.352V44.936C145.501 45.0107 145.298 45.064 145.074 45.096C144.861 45.1387 144.653 45.16 144.45 45.16ZM150.627 45.16C149.795 45.16 149.075 44.9893 148.467 44.648C147.859 44.3067 147.384 43.8213 147.043 43.192C146.712 42.5627 146.547 41.816 146.547 40.952C146.547 40.088 146.712 39.3467 147.043 38.728C147.384 38.0987 147.859 37.6133 148.467 37.272C149.075 36.9307 149.795 36.76 150.627 36.76C151.459 36.76 152.179 36.9307 152.787 37.272C153.405 37.6133 153.88 38.0987 154.211 38.728C154.552 39.3467 154.723 40.088 154.723 40.952C154.723 41.816 154.552 42.5627 154.211 43.192C153.88 43.8213 153.405 44.3067 152.787 44.648C152.179 44.9893 151.459 45.16 150.627 45.16ZM150.627 43.624C151.256 43.624 151.757 43.4053 152.131 42.968C152.504 42.52 152.691 41.848 152.691 40.952C152.691 40.056 152.504 39.3893 152.131 38.952C151.757 38.5147 151.256 38.296 150.627 38.296C149.997 38.296 149.496 38.5147 149.123 38.952C148.749 39.3893 148.563 40.056 148.563 40.952C148.563 41.848 148.749 42.52 149.123 42.968C149.496 43.4053 149.997 43.624 150.627 43.624ZM159.327 45.16C158.634 45.16 157.994 45.08 157.407 44.92C156.831 44.7493 156.346 44.5147 155.951 44.216L156.511 42.872C156.917 43.1493 157.365 43.3627 157.855 43.512C158.346 43.6613 158.842 43.736 159.343 43.736C159.877 43.736 160.271 43.6453 160.527 43.464C160.794 43.2827 160.927 43.0373 160.927 42.728C160.927 42.4827 160.842 42.2907 160.671 42.152C160.511 42.0027 160.25 41.8907 159.887 41.816L158.287 41.512C157.605 41.3627 157.082 41.1067 156.719 40.744C156.367 40.3813 156.191 39.9067 156.191 39.32C156.191 38.8187 156.325 38.376 156.591 37.992C156.869 37.608 157.258 37.3093 157.759 37.096C158.271 36.872 158.869 36.76 159.551 36.76C160.149 36.76 160.709 36.84 161.231 37C161.765 37.16 162.213 37.4 162.575 37.72L161.999 39.016C161.669 38.7493 161.29 38.5413 160.863 38.392C160.437 38.2427 160.021 38.168 159.615 38.168C159.061 38.168 158.655 38.2693 158.399 38.472C158.143 38.664 158.015 38.9147 158.015 39.224C158.015 39.4587 158.09 39.656 158.239 39.816C158.399 39.9653 158.645 40.0773 158.975 40.152L160.575 40.456C161.29 40.5947 161.829 40.84 162.191 41.192C162.565 41.5333 162.751 42.0027 162.751 42.6C162.751 43.1333 162.607 43.592 162.319 43.976C162.031 44.36 161.631 44.6533 161.119 44.856C160.607 45.0587 160.01 45.16 159.327 45.16Z" fill="black"/>
<circle cx="28.8125" cy="29.0938" r="5.52696" stroke="white" stroke-width="2.00857"/>
<path d="M18.125 21.375V37.4062V38H39.5V21.375H34.75L31.7812 19H25.8438L23.4688 21.375H18.125Z" stroke="white" stroke-width="2.00857" stroke-linejoin="round"/>
<defs>
<filter id="filter0_f_1_2234" x="2" y="8" width="54" height="54" filterUnits="userSpaceOnUse" color-interpolation-filters="sRGB">
<feFlood flood-opacity="0" result="BackgroundImageFix"/>
<feBlend mode="normal" in="SourceGraphic" in2="BackgroundImageFix" result="shape"/>
<feGaussianBlur stdDeviation="3" result="effect1_foregroundBlur_1_2234"/>
</filter>
</defs>
</svg>
