<svg width="160" height="160" viewBox="0 0 160 160" fill="none" xmlns="http://www.w3.org/2000/svg">
<path d="M160 80C160 124.183 124.183 160 80 160C35.8172 160 0 124.183 0 80C0 35.8172 35.8172 0 80 0C124.183 0 160 35.8172 160 80ZM20 80C20 113.137 46.8629 140 80 140C113.137 140 140 113.137 140 80C140 46.8629 113.137 20 80 20C46.8629 20 20 46.8629 20 80Z" fill="#1456F2" fill-opacity="0.1"/>
<path d="M80 0C99.7959 2.36063e-07 118.889 7.33954 133.587 20.5996C148.286 33.8597 157.546 52.0985 159.578 71.7899C161.609 91.4812 156.268 111.226 144.586 127.208C132.905 143.19 115.712 154.273 96.3336 158.315C76.9547 162.357 56.7655 159.07 39.6693 149.09C22.5731 139.11 9.78411 123.146 3.77494 104.285C-2.23424 85.4228 -1.0368 65.0029 7.13574 46.9727C15.3083 28.9426 29.8755 14.5828 48.0209 6.66966L56.0157 25.0022C42.4066 30.9371 31.4812 41.707 25.3518 55.2296C19.2224 68.7522 18.3243 84.0671 22.8312 98.2134C27.3381 112.36 36.9298 124.333 49.752 131.818C62.5741 139.302 77.716 141.767 92.2502 138.736C106.784 135.705 119.678 127.393 128.44 115.406C137.201 103.42 141.207 88.6109 139.683 73.8424C138.16 59.0739 131.214 45.3948 120.19 35.4497C109.167 25.5047 94.8469 20 80 20V0Z" fill="#1456F2" fill-opacity="0.4"/>
<path d="M80 0C98.5084 2.20711e-07 116.444 6.41755 130.751 18.1592C145.059 29.9008 154.852 46.24 158.463 64.3928C162.074 82.5456 159.279 101.389 150.554 117.712C141.829 134.035 127.714 146.827 110.615 153.91C93.5151 160.993 74.4887 161.928 56.7772 156.555C39.0658 151.183 23.7651 139.835 13.4824 124.446C3.19969 109.056 -1.42892 90.5779 0.385224 72.1586C2.19937 53.7393 10.344 36.5189 23.4315 23.4314L37.5736 37.5736C27.758 47.3891 21.6495 60.3045 20.2889 74.1189C18.9283 87.9334 22.3998 101.792 30.1118 113.334C37.8239 124.876 49.2993 133.387 62.5829 137.416C75.8665 141.446 90.1363 140.745 102.961 135.433C115.786 130.121 126.372 120.526 132.915 108.284C139.459 96.0416 141.555 81.9092 138.847 68.2946C136.139 54.68 128.794 42.4256 118.064 33.6194C107.333 24.8132 93.8813 20 80 20V0Z" fill="#1456F2" fill-opacity="0.7"/>
<path d="M80 0C97.3068 2.06382e-07 114.147 5.61241 127.993 15.9951C141.84 26.3777 151.946 40.9707 156.795 57.5842C161.645 74.1977 160.976 91.9358 154.889 108.137C148.802 124.338 137.625 138.128 123.036 147.438C108.447 156.748 91.2315 161.076 73.9739 159.773C56.7162 158.469 40.3467 151.604 27.3217 140.208C14.2966 128.812 5.31839 113.499 1.73429 96.5674C-1.84982 79.6358 0.153464 61.9984 7.44353 46.3019L25.5826 54.7265C20.1151 66.4988 18.6126 79.7268 21.3007 92.4255C23.9888 105.124 30.7224 116.609 40.4912 125.156C50.2601 133.703 62.5372 138.852 75.4804 139.83C88.4236 140.807 101.335 137.561 112.277 130.579C123.219 123.596 131.601 113.253 136.167 101.103C140.732 88.9519 141.234 75.6483 137.597 63.1881C133.96 50.728 126.38 39.7833 115.995 31.9963C105.61 24.2093 92.9801 20 80 20L80 0Z" fill="#1456F2"/>
</svg>
