<svg width="18" height="18" viewBox="0 0 18 18" fill="none" xmlns="http://www.w3.org/2000/svg">
<path d="M8.16665 0.666748C12.3067 0.666748 15.6667 4.02675 15.6667 8.16675C15.6667 12.3067 12.3067 15.6667 8.16665 15.6667C4.02666 15.6667 0.666656 12.3067 0.666656 8.16675C0.666656 4.02675 4.02666 0.666748 8.16665 0.666748ZM8.16665 14.0001C11.3896 14.0001 14 11.3897 14 8.16675C14 4.94383 11.3896 2.33341 8.16665 2.33341C4.94374 2.33341 2.33332 4.94383 2.33332 8.16675C2.33332 11.3897 4.94374 14.0001 8.16665 14.0001ZM15.2377 14.0593L17.5947 16.4163L16.4162 17.5948L14.0592 15.2378L15.2377 14.0593Z" fill="#767676"/>
</svg>
