    <svg width="13" height="13" viewBox="0 0 13 13" fill="none" xmlns="http://www.w3.org/2000/svg">
                        <path d="M5.8075 1.21045C5.98345 0.772295 6.60371 0.772294 6.77966 1.21044L7.98141 4.20306C8.05634 4.38964 8.23145 4.51687 8.43206 4.53047L11.6496 4.74864C12.1206 4.78058 12.3123 5.37049 11.95 5.67322L9.47519 7.74092C9.3209 7.86984 9.25401 8.0757 9.30306 8.27069L10.0898 11.3981C10.205 11.856 9.70323 12.2206 9.30335 11.9696L6.57209 10.2549C6.40181 10.1479 6.18535 10.1479 6.01507 10.2549L3.28381 11.9696C2.88393 12.2206 2.38212 11.856 2.49732 11.3981L3.28409 8.27069C3.33315 8.0757 3.26626 7.86984 3.11196 7.74092L0.637177 5.67322C0.274842 5.37048 0.466515 4.78058 0.937592 4.74864L4.1551 4.53047C4.35571 4.51687 4.53082 4.38964 4.60575 4.20306L5.8075 1.21045Z" fill="white"></path>
                        </svg>