<svg width="20" height="20" viewBox="0 0 20 20" fill="none" xmlns="http://www.w3.org/2000/svg">
<g clip-path="url(#clip0_1_866)">
<path d="M10.2113 0.637247L13.6519 5.67154L19.503 7.38809L15.7783 12.216L15.9539 18.3112L10.2113 16.2607L4.46868 18.3112L4.64424 12.216L0.919556 7.38809L6.77066 5.67154L10.2113 0.637247ZM10.2113 3.52263L7.78695 7.07033L3.66301 8.27976L6.28862 11.6817L6.16411 15.976L10.2113 14.5317L14.2577 15.976L14.134 11.6817L16.7588 8.27976L12.6356 7.07033L10.2113 3.52263ZM8.58298 10.0001C8.58298 10.8994 9.31196 11.6284 10.2113 11.6284C11.1106 11.6284 11.8396 10.8994 11.8396 10.0001H13.4679C13.4679 11.7986 12.0099 13.2567 10.2113 13.2567C8.41271 13.2567 6.95466 11.7986 6.95466 10.0001H8.58298Z" fill="#4B5979"/>
</g>
<defs>
<clipPath id="clip0_1_866">
<rect width="19.5398" height="19.5398" fill="white" transform="translate(0.442505 0.230167)"/>
</clipPath>
</defs>
</svg>
