<svg width="200" height="58" viewBox="0 0 200 58" fill="none" xmlns="http://www.w3.org/2000/svg">
<path d="M29 0.5C13.2599 0.5 0.5 13.2599 0.5 29C0.5 44.7401 13.2599 57.5 29 57.5H171C186.74 57.5 199.5 44.7401 199.5 29C199.5 13.2599 186.74 0.5 171 0.5H29Z" fill="#3EBC60" fill-opacity="0.05" stroke="#DFF7E6"/>
<path opacity="0.6" d="M68.601 17L65.39 7.835H66.794L69.459 15.752H68.978L71.799 7.835H72.826L75.478 15.752H75.036L77.792 7.835H79.118L75.881 17H74.724L72.15 9.46H72.423L69.745 17H68.601ZM79.7104 17V12.073C79.7104 11.8043 79.7017 11.5357 79.6844 11.267C79.6757 10.9897 79.6584 10.7167 79.6324 10.448H80.9064L81.0494 12.138H80.8414C80.9281 11.7307 81.0754 11.3927 81.2834 11.124C81.4914 10.8553 81.7427 10.656 82.0374 10.526C82.3407 10.396 82.6571 10.331 82.9864 10.331C83.1251 10.331 83.2421 10.3397 83.3374 10.357C83.4327 10.3657 83.5281 10.383 83.6234 10.409L83.6104 11.579C83.4631 11.5183 83.3331 11.4837 83.2204 11.475C83.1164 11.4577 82.9864 11.449 82.8304 11.449C82.4491 11.449 82.1241 11.5357 81.8554 11.709C81.5867 11.8737 81.3831 12.099 81.2444 12.385C81.1057 12.671 81.0364 12.9787 81.0364 13.308V17H79.7104ZM84.6368 17V10.448H85.9498V17H84.6368ZM84.5328 9.083V7.718H86.0538V9.083H84.5328ZM90.4221 17.117C89.7114 17.117 89.1741 16.9263 88.8101 16.545C88.4461 16.155 88.2641 15.5743 88.2641 14.803V11.462H86.9901V10.448H88.2641V8.719L89.5771 8.368V10.448H91.3971V11.462H89.5771V14.686C89.5771 15.1713 89.6638 15.518 89.8371 15.726C90.0104 15.934 90.2618 16.038 90.5911 16.038C90.7558 16.038 90.8988 16.025 91.0201 15.999C91.1501 15.9643 91.2671 15.9253 91.3711 15.882V16.948C91.2411 17 91.0894 17.039 90.9161 17.065C90.7428 17.0997 90.5781 17.117 90.4221 17.117ZM95.5623 17.117C94.505 17.117 93.673 16.818 93.0663 16.22C92.4596 15.622 92.1563 14.7943 92.1563 13.737C92.1563 13.0523 92.2863 12.4543 92.5463 11.943C92.815 11.4317 93.1833 11.0373 93.6513 10.76C94.128 10.474 94.6783 10.331 95.3023 10.331C95.9176 10.331 96.4333 10.461 96.8493 10.721C97.2653 10.981 97.5816 11.3493 97.7983 11.826C98.015 12.294 98.1233 12.8487 98.1233 13.49V13.906H93.1833V13.152H97.2263L97.0053 13.321C97.0053 12.671 96.858 12.1683 96.5633 11.813C96.2773 11.449 95.8613 11.267 95.3153 11.267C94.7086 11.267 94.2406 11.4793 93.9113 11.904C93.582 12.32 93.4173 12.8963 93.4173 13.633V13.763C93.4173 14.5343 93.6036 15.115 93.9763 15.505C94.3576 15.895 94.895 16.09 95.5883 16.09C95.9696 16.09 96.325 16.038 96.6543 15.934C96.9923 15.8213 97.313 15.6393 97.6163 15.388L98.0453 16.285C97.742 16.5537 97.3736 16.7617 96.9403 16.909C96.507 17.0477 96.0476 17.117 95.5623 17.117ZM105.605 17.117C105.024 17.117 104.517 16.9827 104.084 16.714C103.65 16.4453 103.312 16.0553 103.07 15.544C102.836 15.0327 102.719 14.426 102.719 13.724C102.719 13.0133 102.836 12.4067 103.07 11.904C103.312 11.4013 103.65 11.0157 104.084 10.747C104.517 10.4697 105.024 10.331 105.605 10.331C106.177 10.331 106.675 10.474 107.1 10.76C107.524 11.046 107.806 11.436 107.945 11.93H107.802L107.932 10.448H109.206C109.18 10.7167 109.154 10.9853 109.128 11.254C109.11 11.514 109.102 11.7697 109.102 12.021V17H107.789V15.544H107.932C107.793 16.0293 107.507 16.415 107.074 16.701C106.649 16.9783 106.159 17.117 105.605 17.117ZM105.93 16.09C106.493 16.09 106.944 15.8907 107.282 15.492C107.628 15.0933 107.802 14.504 107.802 13.724C107.802 12.944 107.628 12.359 107.282 11.969C106.944 11.5703 106.493 11.371 105.93 11.371C105.358 11.371 104.898 11.5703 104.552 11.969C104.214 12.359 104.045 12.944 104.045 13.724C104.045 14.504 104.214 15.0933 104.552 15.492C104.89 15.8907 105.349 16.09 105.93 16.09Z" fill="black"/>
<path d="M66.248 40V28.72H71.176C72.4133 28.72 73.368 29.0133 74.04 29.6C74.7227 30.1867 75.064 31.0027 75.064 32.048C75.064 32.7413 74.9093 33.3333 74.6 33.824C74.3013 34.3147 73.8693 34.6933 73.304 34.96C72.7387 35.216 72.072 35.344 71.304 35.344L71.528 35.04H72.072C72.52 35.04 72.92 35.1573 73.272 35.392C73.624 35.6267 73.912 35.984 74.136 36.464L75.784 40H73.512L71.848 36.336C71.6987 35.9627 71.4693 35.7173 71.16 35.6C70.8613 35.4827 70.4987 35.424 70.072 35.424H68.312V40H66.248ZM68.312 33.904H70.84C71.5653 33.904 72.1147 33.7547 72.488 33.456C72.872 33.1467 73.064 32.6987 73.064 32.112C73.064 31.5253 72.872 31.0827 72.488 30.784C72.1147 30.4853 71.5653 30.336 70.84 30.336H68.312V33.904ZM81.0233 40.16C79.6686 40.16 78.6073 39.7867 77.8393 39.04C77.0713 38.2933 76.6873 37.2693 76.6873 35.968C76.6873 35.1253 76.8526 34.3893 77.1833 33.76C77.5139 33.1307 77.9726 32.64 78.5593 32.288C79.1566 31.936 79.8499 31.76 80.6393 31.76C81.4179 31.76 82.0686 31.9253 82.5913 32.256C83.1139 32.5867 83.5086 33.0507 83.7753 33.648C84.0526 34.2453 84.1913 34.944 84.1913 35.744V36.272H78.3033V35.216H82.7673L82.4953 35.44C82.4953 34.6933 82.3353 34.1227 82.0153 33.728C81.7059 33.3333 81.2526 33.136 80.6553 33.136C79.9939 33.136 79.4819 33.3707 79.1193 33.84C78.7673 34.3093 78.5913 34.9653 78.5913 35.808V36.016C78.5913 36.8907 78.8046 37.5467 79.2313 37.984C79.6686 38.4107 80.2819 38.624 81.0713 38.624C81.5299 38.624 81.9566 38.5653 82.3513 38.448C82.7566 38.32 83.1406 38.1173 83.5033 37.84L84.0953 39.184C83.7113 39.4933 83.2526 39.7333 82.7193 39.904C82.1859 40.0747 81.6206 40.16 81.0233 40.16ZM88.1279 40L84.6399 31.92H86.7679L89.2959 38.24H88.7999L91.3919 31.92H93.3919L89.8879 40H88.1279ZM94.463 40V31.92H96.463V40H94.463ZM94.351 30.4V28.448H96.575V30.4H94.351ZM102.539 40.16C101.184 40.16 100.123 39.7867 99.3549 39.04C98.5869 38.2933 98.2029 37.2693 98.2029 35.968C98.2029 35.1253 98.3682 34.3893 98.6989 33.76C99.0295 33.1307 99.4882 32.64 100.075 32.288C100.672 31.936 101.366 31.76 102.155 31.76C102.934 31.76 103.584 31.9253 104.107 32.256C104.63 32.5867 105.024 33.0507 105.291 33.648C105.568 34.2453 105.707 34.944 105.707 35.744V36.272H99.8189V35.216H104.283L104.011 35.44C104.011 34.6933 103.851 34.1227 103.531 33.728C103.222 33.3333 102.768 33.136 102.171 33.136C101.51 33.136 100.998 33.3707 100.635 33.84C100.283 34.3093 100.107 34.9653 100.107 35.808V36.016C100.107 36.8907 100.32 37.5467 100.747 37.984C101.184 38.4107 101.798 38.624 102.587 38.624C103.046 38.624 103.472 38.5653 103.867 38.448C104.272 38.32 104.656 38.1173 105.019 37.84L105.611 39.184C105.227 39.4933 104.768 39.7333 104.235 39.904C103.702 40.0747 103.136 40.16 102.539 40.16ZM109.516 40L106.364 31.92H108.428L110.7 38.208H110.284L112.588 31.92H114.012L116.3 38.208H115.932L118.188 31.92H120.14L116.988 40H115.227L112.812 33.568H113.66L111.292 40H109.516Z" fill="black"/>
<circle cx="29" cy="29" r="24" fill="#3DBC60"/>
<g filter="url(#filter0_f_1_2222)">
<circle cx="29" cy="29" r="21" fill="#3DBC60" fill-opacity="0.32"/>
</g>
<mask id="mask0_1_2222" style="mask-type:alpha" maskUnits="userSpaceOnUse" x="23" y="24" width="13" height="6">
<rect x="35.6316" y="29.0527" width="12.6316" height="5.05263" transform="rotate(-180 35.6316 29.0527)" fill="white"/>
</mask>
<g mask="url(#mask0_1_2222)">
<circle cx="29.3153" cy="24" r="4.05263" transform="rotate(-180 29.3153 24)" stroke="white" stroke-width="2"/>
</g>
<path d="M29 17L24.5789 23.9474L17 26.4737L22.0526 32.7895L21.4211 41L29 37.8421L36.5789 41L35.9474 32.7895L41 26.4737L33.4211 23.9474L29 17Z" stroke="white" stroke-width="2" stroke-linejoin="round"/>
<defs>
<filter id="filter0_f_1_2222" x="2" y="2" width="54" height="54" filterUnits="userSpaceOnUse" color-interpolation-filters="sRGB">
<feFlood flood-opacity="0" result="BackgroundImageFix"/>
<feBlend mode="normal" in="SourceGraphic" in2="BackgroundImageFix" result="shape"/>
<feGaussianBlur stdDeviation="3" result="effect1_foregroundBlur_1_2222"/>
</filter>
</defs>
</svg>
